<svg width="39" height="38" viewBox="0 0 39 38" fill="none" xmlns="http://www.w3.org/2000/svg">
<rect width="39" height="38" rx="19" fill="#1E1E1E"/>
<path opacity="0.4" d="M25.8724 23.3716C26.4735 24.3635 26.4761 25.589 25.8792 26.5832C25.2824 27.5774 24.1775 28.188 22.9837 28.1833C21.79 28.1786 20.6903 27.5594 20.1019 26.5605L13.1181 14.9287C12.2024 13.3963 12.7518 11.4401 14.3452 10.5594C15.9387 9.67874 17.9729 10.2071 18.8887 11.7395L25.8724 23.3716Z" fill="#4BDB4B"/>
<path opacity="0.8" d="M11.7017 29.7424C10.7357 31.5833 8.61361 32.2124 6.95087 31.1508C5.28813 30.0891 4.70845 27.735 5.65314 25.8805L12.9709 11.7956C13.5848 10.5799 14.739 9.82425 15.9934 9.81671C17.2479 9.80917 18.4094 10.5509 19.0351 11.7591C19.6608 12.9673 19.6544 14.4559 19.0184 15.6575L11.7017 29.7424Z" fill="#4BDB4B"/>
<path opacity="0.8" d="M26.0017 26.2592C25.0358 28.1001 22.9137 28.7291 21.2509 27.6675C19.5882 26.6059 19.0085 24.2517 19.9532 22.3972L27.2709 8.31228C27.8849 7.0966 29.039 6.34097 30.2935 6.33343C31.548 6.32589 32.7094 7.0676 33.3351 8.27583C33.9609 9.48407 33.9545 10.9727 33.3184 12.1742L26.0017 26.2592Z" fill="#4BDB4B"/>
<path d="M19.6078 11.6332C19.5626 11.5604 19.5138 11.4906 19.4642 11.4217C19.4402 11.3885 19.4175 11.3546 19.3922 11.3223C19.3438 11.2595 19.2918 11.2001 19.2397 11.1412C19.208 11.105 19.1775 11.068 19.1442 11.0329C19.097 10.9836 19.0474 10.9378 18.9982 10.8912C18.949 10.8445 18.912 10.8087 18.8664 10.7694C18.8209 10.7301 18.7778 10.6985 18.733 10.6635C18.6769 10.6195 18.6212 10.5752 18.5618 10.534C18.5212 10.5055 18.4785 10.4797 18.4366 10.4531C18.3707 10.4107 18.3044 10.3687 18.2332 10.3298C18.2186 10.3217 18.2056 10.3121 18.1926 10.304C18.1617 10.2871 18.1291 10.2743 18.0974 10.2582C18.0315 10.2246 17.9652 10.1919 17.8981 10.1622C17.8416 10.1368 17.7839 10.1141 17.7257 10.0917C17.6676 10.0694 17.6122 10.0482 17.5549 10.0289C17.4874 10.0063 17.4196 9.98553 17.3516 9.96652C17.3011 9.95226 17.2511 9.93878 17.2003 9.92799C17.1275 9.91066 17.0539 9.89563 16.9803 9.88215C16.9303 9.87328 16.8798 9.86481 16.8298 9.85749C16.7578 9.84747 16.6859 9.83938 16.6131 9.83283C16.5572 9.82769 16.5015 9.82384 16.4459 9.82127C16.3806 9.81819 16.3151 9.81665 16.2495 9.81665C16.1848 9.81665 16.1206 9.81665 16.0559 9.82127C15.9994 9.82397 15.9425 9.82782 15.8855 9.83283C15.8144 9.83938 15.7428 9.84709 15.672 9.85749C15.6208 9.86481 15.5695 9.87328 15.5187 9.88253C15.4455 9.89563 15.373 9.91066 15.3011 9.92761C15.2495 9.93994 15.1983 9.95381 15.147 9.96806C15.0792 9.98707 15.0115 10.0076 14.9437 10.0297C14.8851 10.0494 14.827 10.0713 14.7692 10.0937C14.7115 10.116 14.6562 10.138 14.6009 10.1626C14.5321 10.1931 14.4642 10.2266 14.3975 10.2609C14.367 10.2767 14.3357 10.289 14.3056 10.3056C14.2914 10.3133 14.2788 10.3225 14.265 10.3302C14.1934 10.3687 14.1247 10.4134 14.0571 10.457C14.0165 10.4824 13.9758 10.507 13.938 10.534C13.8758 10.5776 13.816 10.6238 13.7574 10.6704C13.7168 10.7028 13.6761 10.734 13.6354 10.7683C13.5854 10.811 13.5386 10.8565 13.4915 10.9012C13.4443 10.9459 13.3987 10.9855 13.3581 11.0295C13.3174 11.0734 13.2845 11.1119 13.2479 11.1535C13.2015 11.2071 13.1543 11.2606 13.1108 11.3169C13.0799 11.3554 13.0523 11.3974 13.0234 11.4378C12.9795 11.4991 12.936 11.5611 12.8957 11.6259C12.1781 12.7716 12.1675 14.1947 12.868 15.3498L16.2503 20.9L19.6322 15.3498C20.3312 14.1972 20.3219 12.7775 19.6078 11.6332Z" fill="#4BDB4B"/>
<path d="M19.8252 26.5398C19.8734 26.6085 19.925 26.6741 19.9773 26.7388C20.0026 26.7699 20.0268 26.8018 20.0532 26.8321C20.104 26.8909 20.1581 26.9461 20.2122 27.0009C20.2452 27.0346 20.277 27.0691 20.3115 27.1015C20.3603 27.1472 20.4112 27.1893 20.4618 27.2323C20.5124 27.2752 20.5505 27.3082 20.5971 27.3441C20.6437 27.3801 20.6875 27.4086 20.733 27.4405C20.7902 27.4804 20.8469 27.5207 20.9071 27.5578C20.9483 27.5835 20.9913 27.6064 21.0336 27.6301C21.1001 27.668 21.167 27.7054 21.2385 27.7396C21.2532 27.7467 21.2664 27.7554 21.2795 27.7626C21.3105 27.7775 21.3429 27.7882 21.3747 27.8023C21.4407 27.8315 21.507 27.8599 21.574 27.8853C21.6304 27.9071 21.6878 27.9262 21.7456 27.9448C21.8035 27.9635 21.8584 27.9813 21.9153 27.997C21.9822 28.0154 22.0493 28.0321 22.1165 28.047C22.1663 28.0582 22.2157 28.0686 22.2657 28.0764C22.3375 28.0894 22.4099 28.1001 22.4821 28.1093C22.5313 28.1152 22.5807 28.1208 22.6298 28.1252C22.7003 28.1311 22.7706 28.1351 22.8417 28.1375C22.8963 28.1395 22.9506 28.1403 23.0047 28.1398C23.0684 28.1392 23.1321 28.1372 23.1958 28.1336C23.2586 28.1301 23.321 28.1266 23.3835 28.1186C23.4382 28.1129 23.4933 28.106 23.5482 28.098C23.617 28.0877 23.686 28.0763 23.7541 28.0623C23.8034 28.0523 23.8527 28.0413 23.9015 28.0295C23.9718 28.0127 24.0413 27.994 24.1101 27.9735C24.1595 27.9587 24.2084 27.9423 24.2573 27.9256C24.322 27.9033 24.3866 27.8796 24.451 27.8543C24.5067 27.8319 24.5619 27.8072 24.6166 27.7823C24.6714 27.7573 24.7237 27.7328 24.776 27.7057C24.8409 27.6722 24.9048 27.6357 24.9675 27.5985C24.9962 27.5814 25.0259 27.5677 25.0541 27.5498C25.0675 27.5415 25.0791 27.5318 25.0921 27.5235C25.1593 27.4819 25.2233 27.4345 25.2863 27.3883C25.3242 27.3612 25.3623 27.3349 25.3974 27.3064C25.4552 27.2605 25.5104 27.212 25.5645 27.1632C25.602 27.1294 25.6397 27.0967 25.6771 27.0609C25.7231 27.0164 25.7658 26.9694 25.8089 26.9231C25.852 26.8768 25.8939 26.8356 25.9307 26.7904C25.9676 26.7452 25.9972 26.7058 26.0303 26.6631C26.0721 26.6082 26.1147 26.5533 26.1535 26.4959C26.1812 26.4565 26.2056 26.414 26.2312 26.3729C26.2701 26.3106 26.3087 26.2475 26.3439 26.1821C26.9718 25.0226 26.8965 23.6304 26.1467 22.5388L22.5282 17.2952L19.5779 22.9065C18.9684 24.0717 19.0629 25.4595 19.8252 26.5398Z" fill="#4BDB4B"/>
</svg>
